<svg width="149" height="44" viewBox="0 0 149 44" fill="none" xmlns="http://www.w3.org/2000/svg">
<path d="M20.953 24.9371C21.1191 31.9511 17.3208 36.1429 11.8489 36.1447C9.17882 36.1447 6.74166 34.9561 4.98871 32.6621L5.19993 41.6607C5.20881 41.9608 5.15828 42.2596 5.05124 42.54C4.94421 42.8204 4.78279 43.0767 4.57632 43.2942C4.36986 43.5118 4.12242 43.6861 3.84833 43.8072C3.57423 43.9283 3.2789 43.9938 2.9794 43.9999C2.35826 43.9928 1.76382 43.7458 1.3199 43.3104C0.875977 42.875 0.616813 42.2847 0.596396 41.6625L0.000644347 16.3853C-0.00655426 16.0819 0.0466257 15.7801 0.15708 15.4976C0.267534 15.215 0.433049 14.9573 0.643964 14.7396C0.854878 14.5218 1.10697 14.3483 1.38551 14.2293C1.66406 14.1102 1.96348 14.0479 2.2663 14.0461C2.87927 14.0634 3.46235 14.3153 3.89579 14.75C4.32923 15.1847 4.58013 15.7692 4.59696 16.3835L4.61681 17.2229C5.37923 16.155 6.38584 15.2856 7.55237 14.6876C8.7189 14.0896 10.0114 13.7803 11.3217 13.7856C16.79 13.7784 20.7888 17.9231 20.953 24.9371ZM16.1816 24.9371C16.0841 20.834 13.6957 17.8815 10.0616 17.8815C7.91691 17.8815 5.67111 19.1605 4.69986 20.7489L4.89844 29.1759C5.94191 30.7191 8.2509 32.0416 10.3956 32.0416C14.0279 32.0416 16.2791 29.0854 16.1816 24.9389V24.9371Z" fill="#163A80"/>
<path d="M86.6211 20.3293L86.9334 33.6499C86.9411 33.9534 86.8883 34.2553 86.7782 34.5381C86.6681 34.8209 86.5028 35.0788 86.292 35.2968C86.0812 35.5147 85.8291 35.6884 85.5505 35.8076C85.272 35.9268 84.9725 35.9891 84.6696 35.991C84.056 35.9732 83.4724 35.7207 83.0387 35.2854C82.605 34.8501 82.3539 34.2649 82.3371 33.6499L82.0591 21.8273C82.005 19.5333 80.9633 17.9901 78.5117 17.9901C76.4536 17.9901 74.5617 19.4464 73.6735 20.8141L73.975 33.659C73.9831 33.9627 73.9307 34.2649 73.8208 34.548C73.7108 34.8311 73.5456 35.0893 73.3347 35.3075C73.1238 35.5257 72.8716 35.6996 72.5928 35.8188C72.314 35.938 72.0142 36.0002 71.7111 36.0018C71.0957 35.9839 70.5106 35.7299 70.0766 35.2923C69.6426 34.8547 69.3927 34.2668 69.3787 33.6499L69.1024 21.8273C69.0465 19.5333 68.0048 17.9901 65.5099 17.9901C63.4952 17.9901 61.6465 19.4374 60.7168 20.8594L61.0201 33.659C61.0295 33.9597 60.9792 34.2592 60.8721 34.5402C60.7651 34.8213 60.6034 35.0782 60.3965 35.2961C60.1896 35.5141 59.9416 35.6887 59.6669 35.8098C59.3921 35.931 59.0961 35.9962 58.796 36.0018C58.1761 35.9929 57.5835 35.745 57.1411 35.3098C56.6987 34.8746 56.4405 34.2853 56.4202 33.6644L56.0176 16.5048C56.0087 16.2047 56.0592 15.9059 56.1663 15.6255C56.2733 15.3451 56.4347 15.0888 56.6412 14.8713C56.8477 14.6537 57.0951 14.4794 57.3692 14.3583C57.6433 14.2372 57.9386 14.1717 58.2381 14.1656C58.8574 14.1745 59.4495 14.4218 59.8918 14.8563C60.3341 15.2908 60.5926 15.8791 60.6139 16.4994L60.632 17.337C61.4786 16.0579 64.2299 13.8996 67.4253 13.8996C70.5792 13.8996 72.5415 15.4862 73.2962 17.8236C74.4768 15.8824 77.2335 13.896 80.3838 13.896C84.2814 13.8888 86.52 16.0055 86.6211 20.3293Z" fill="#163A80"/>
<path d="M101.84 13.8851C108.187 13.8851 112.374 18.7698 112.505 24.4251C112.538 25.7928 111.594 26.5852 109.843 26.5961L96.2234 26.5943C96.6495 29.8145 99.1209 32.4595 103.103 32.4595C104.797 32.4326 106.45 31.9441 107.888 31.0466C108.187 30.8599 108.535 30.7673 108.888 30.7806C109.379 30.7874 109.849 30.9836 110.2 31.3287C110.55 31.6737 110.755 32.1409 110.771 32.6332C110.774 32.9362 110.703 33.2355 110.564 33.5048C110.425 33.7741 110.223 34.0053 109.974 34.1782C107.907 35.5911 105.384 36.2533 102.712 36.2533C96.3642 36.2533 91.5314 31.801 91.3725 25.0511C91.2299 18.8729 95.5789 13.8851 101.84 13.8851ZM96.1079 23.327H108.023C107.875 20.8123 106.095 17.6807 101.935 17.6825C97.989 17.6789 96.2649 20.7237 96.1079 23.327Z" fill="#163A80"/>
<path d="M117.279 33.6499L116.685 8.36545C116.678 8.06207 116.731 7.76029 116.841 7.47773C116.952 7.19516 117.117 6.93748 117.328 6.71972C117.539 6.50196 117.791 6.32848 118.07 6.20941C118.348 6.09035 118.648 6.02808 118.95 6.02625C119.563 6.04402 120.146 6.29604 120.579 6.73064C121.013 7.16524 121.264 7.7495 121.281 8.36364L121.875 33.6499C121.884 33.95 121.833 34.2488 121.726 34.5292C121.619 34.8096 121.458 35.0659 121.251 35.2834C121.045 35.5009 120.797 35.6753 120.523 35.7964C120.249 35.9175 119.954 35.983 119.654 35.9891C119.034 35.9801 118.441 35.732 117.999 35.2964C117.557 34.8608 117.299 34.2711 117.279 33.6499Z" fill="#163A80"/>
<path d="M126.244 25.0384C126.101 18.9507 130.139 13.8761 136.839 13.8743C143.625 13.8743 147.851 18.9398 148.001 25.0312C148.146 31.1624 144.15 36.237 137.364 36.2388C130.667 36.2424 126.388 31.1696 126.244 25.0384ZM143.23 25.0384C143.141 21.2881 140.883 17.9828 136.935 17.9828C133.039 17.9828 130.927 21.2935 131.015 25.0384C131.105 28.8376 133.362 32.1393 137.269 32.1393C141.208 32.1357 143.318 28.8268 143.23 25.033V25.0384Z" fill="#163A80"/>
<path d="M36.1918 0.083287C34.4262 0.777994 31.0051 2.86573 32.4963 8.05976C32.5439 8.22869 32.6279 8.38511 32.7423 8.51796C32.8568 8.65081 32.999 8.75687 33.1588 8.82864C33.3191 8.90093 33.4933 8.93679 33.6691 8.93366C33.8448 8.93054 34.0176 8.88849 34.1752 8.81055C38.9521 6.45867 38.2155 2.50029 37.5818 0.698392C37.5345 0.564497 37.4608 0.441468 37.3652 0.336566C37.2672 0.23178 37.1494 0.147535 37.0186 0.0887144C36.8882 0.0313516 36.7476 0.0011898 36.6052 6.68309e-05C36.4631 -0.00156741 36.3222 0.0267871 36.1918 0.083287Z" fill="#117348"/>
<path d="M31.328 8.35105C30.8867 7.68059 30.256 7.15713 29.5164 6.84747C28.7768 6.5378 27.962 6.456 27.1758 6.61248C27.0246 6.6322 26.881 6.69068 26.7589 6.78227C26.6369 6.87386 26.5404 6.99546 26.479 7.13532C26.4163 7.27412 26.3902 7.42674 26.4032 7.57855C26.417 7.73056 26.4685 7.87669 26.553 8.0037C26.9529 8.69782 27.5485 9.25806 28.2651 9.61405C28.9817 9.97004 29.7873 10.1059 30.5806 10.0046C30.7625 9.98932 30.9373 9.92698 31.0879 9.82369C31.2382 9.7164 31.3574 9.57117 31.4335 9.40277C31.5096 9.23436 31.5398 9.04877 31.5212 8.86485C31.5014 8.6816 31.4349 8.50653 31.328 8.35648V8.35105Z" fill="#1AD885"/>
<path d="M33.8501 11.6273L31.0284 26.8439L26.7805 21.5106C27.6073 17.9701 29.3603 13.858 32.738 11.3795C32.9935 11.1996 33.2649 11.0434 33.5486 10.9127L33.8501 11.6273Z" fill="#1AD885"/>
<path d="M45.2236 21.3298L33.8502 11.6274L33.5559 10.9182C34.1825 10.6661 34.8568 10.5556 35.5309 10.5944C39.3564 10.8802 42.7864 13.1344 45.2236 15.3651V21.3298Z" fill="#117348"/>
<path d="M45.2234 21.3297L33.85 11.6273L31.0283 26.8439L39.3183 37.2519L45.2343 35.1551L45.2234 21.3297Z" fill="#18AB6B"/>
<path d="M39.3184 37.2519L34.8918 38.8204C32.8132 38.2644 30.9168 37.1708 29.3928 35.649L31.0284 26.844L39.3184 37.2519Z" fill="#1AD885"/>
<path d="M26.7805 21.5106C26.3217 23.3594 26.0985 25.2591 26.1162 27.1642C26.118 27.1731 26.118 27.1823 26.1162 27.1913C26.089 27.8508 26.1217 28.5115 26.2137 29.1651C26.2281 29.2935 26.248 29.422 26.2696 29.5468C26.3261 29.9066 26.4027 30.2629 26.4989 30.6142C27.003 32.5179 27.9994 34.2546 29.3874 35.649L31.023 26.8439L26.7805 21.5106Z" fill="#70F0B8"/>
<path d="M40.7067 38.9923C38.7787 39.3554 36.7952 39.2968 34.8918 38.8205L39.3185 37.252L40.7067 38.9923Z" fill="#70F0B8"/>
<path d="M39.3184 37.2519L40.7066 38.9923C41.0677 38.929 41.4396 38.8458 41.7898 38.7481C42.2318 38.6307 42.667 38.4888 43.0933 38.3229C43.8187 38.0488 44.5184 37.7104 45.1838 37.3116L45.2362 35.1552L39.3184 37.2519Z" fill="#1AD885"/>
<path d="M45.2345 35.1551L45.1821 37.3116C46.7162 36.3997 48.059 35.1979 49.1358 33.7729L45.2345 35.1551Z" fill="#70F0B8"/>
<path d="M51.4249 26.607C51.4337 29.1776 50.6326 31.6854 49.1357 33.7729L45.2345 35.1551L45.2236 21.3297L51.4249 26.607Z" fill="#1AD885"/>
<path d="M51.4249 26.607L45.2236 21.3298V15.3596C46.3897 16.4203 47.4574 17.5847 48.4136 18.8386C49.6755 20.3436 50.5804 22.1157 51.0602 24.0217C51.2883 24.865 51.4108 25.7334 51.4249 26.607Z" fill="#19925D"/>
</svg>
